Patient4_TMGait_0pt7_01_right_31_EMG.mot
version=1
nRows=20
nColumns=33
inDegrees=no
endheader
time	1LAddLong	2LGlutMax	3LGlutMed	4LIliopsoas	5LSemiMemb	6LBicFemLong	7LRecFem	8LVastMed	9LVastLat	10LGasMed	11LTibAnt	12lTibPost	13LPeroneusLong	14LSol	15LExtDigLong	16LFlexDigLong	17RAddLong	18RGlutMax	19RGlutMed	20RIliopsoas	21RSemiMemb	22RBicFemLong	23RRecFem	24RVastMed	25RVastLat	26RGasMed	27RTibAnt	28RTibPost	29RPeroneusLong	30RSol	31RExtDigLong	32RFlexDigLong
35.22	-0.009918	-0.23438	-0.048065	0.003204	0.071106	0.26871	0.16785	-0.006256	-0.029144	-0.042114	0.063934	0.005035	0.32761	0.079193	0.082703	0.007935	-0.22415	-0.13245	0.31296	0.048981	-0.014648	-0.018921	0.14755	-0.16754	-0.042572	0.011444	0.85586	-0.005341	0.31006	-0.090485	-0.003357	-0.001373
35.221	-0.013733	-0.25085	-0.071869	0.010071	0.11017	-0.005035	0.1268	0.010529	0.024414	-0.03006	0.084229	0.00351	0.23209	-0.000916	-0.056915	0.012512	-0.23743	-0.13901	0.47241	0.10208	-0.010834	-0.018616	0.11368	-0.11795	-0.028076	0.029755	0.4274	-0.009308	0.30533	-0.065918	-0.007019	0.00061
35.222	0.001526	-0.28549	-0.10117	0.010681	0.042114	-0.16068	0.11398	0.018768	0.07019	0.002899	0.068817	0.003967	0.13916	-0.048828	-0.22888	0.008087	-0.18753	-0.16327	0.43747	0.12955	-0.001678	-0.022736	0.092926	-0.002899	0.00061	0.008545	-0.11734	-0.009003	0.35446	-0.007172	-0.001831	-0.001831
35.223	0.005341	-0.27069	-0.10223	0.002747	0.0354	-0.088501	0.039368	0.019989	0.052338	0.032806	-0.017395	0.011444	0.081024	-0.19501	-0.24811	-0.012665	-0.12466	-0.21713	0.092621	0.15045	0.027008	-0.031738	-0.033417	0.014648	-0.002899	0.005341	-0.14191	-0.010529	0.12787	0.009918	-0.000458	-0.019836
35.224	0.008392	-0.25589	-0.10147	0.009308	0.021973	-0.036774	0.031281	0.017853	0.076447	0.043335	0.02121	0.014038	0.014801	-0.25971	-0.12665	-0.00824	-0.078735	-0.27222	0.067291	0.10284	0.03418	-0.037079	0.067596	0.008087	-0.01358	0.007629	0.18158	-0.008392	0.059814	-0.038147	-0.001984	-0.015717
35.225	0.003204	-0.28244	-0.18829	0.005493	0.014954	-0.03006	0.088501	0.010986	0.070343	0.057068	0.003967	0.010529	-0.12619	-0.16663	0.14511	-0.008087	-0.057678	-0.27329	0.097198	0.078888	0.028687	-0.027924	0.17929	0.013428	-0.022125	0.001221	0.29617	-0.007935	0.020905	-0.047607	-0.001984	-0.018005
35.226	0.000305	-0.26993	-0.23605	-0.000153	0.01358	0.004883	0.084381	0.010223	0.056458	0.029449	-0.10712	0.015259	0.082855	0.014648	-0.075073	-0.004425	-0.062714	-0.28198	0.15396	0.019226	0.02655	-0.033569	0.20721	0.017853	-0.050049	-0.010986	0.49103	-0.011597	0.08316	-0.01709	-0.002136	-0.00885
35.227	-0.006256	-0.24887	-0.095673	-0.00412	0.005646	0.046997	0.09491	0.002289	0.036011	0.023346	-0.13062	0.001984	0.15289	0.16449	-0.10681	0.00885	-0.05249	-0.2449	0.34836	-0.042572	0.04425	-0.05188	0.25879	0.001678	-0.051117	-0.006104	-0.06424	-0.005188	0.18082	-0.016327	-0.003967	-0.014801
35.228	-0.002594	-0.28778	-0.092468	0.005798	0.007324	0.040131	0.12528	-0.014038	0.027771	0.02121	-0.07309	0.005188	0.50934	0.092163	-0.075531	-0.000916	-0.041199	-0.22492	0.065613	-0.094452	0.050201	-0.093079	0.28122	-0.057373	-0.052185	0.000153	-0.41916	-0.012207	0.11398	-0.09964	0.006561	-0.00885
35.229	-0.005341	-0.31143	0.07431	0.020447	0.007019	0.033417	0.121	-0.012207	0.10468	0.026855	-0.042419	0.006104	0.045776	-0.10971	0.062408	-0.006561	-0.024719	-0.22461	0.068512	-0.17258	0.030212	-0.14145	0.15106	-0.17334	-0.060425	-0.001678	-0.41061	-0.007782	-0.050354	-0.084991	-0.002289	-0.004272
35.23	-0.00473	-0.30899	0.087585	-0.004883	0.020447	0.001984	0.10239	-0.007477	0.14679	0.037231	-0.049591	0.006104	-0.63736	-0.1445	0.21957	0.010376	-0.010681	-0.2095	0.10757	-0.13763	0.011749	-0.16617	0.19699	-0.2182	-0.072327	-0.00885	-0.35187	-0.013275	-0.1152	-0.063324	-0.002747	-0.007019
35.231	-0.00473	-0.31021	-0.0354	0.012054	0.016022	-0.052795	0.081482	-0.005646	0.097504	0.029907	-0.070953	0.009308	-0.4483	-0.15579	0.21744	0.005493	0.000305	-0.16434	0.39948	-0.14954	0.005341	-0.18417	0.29892	-0.20645	-0.07019	-0.011292	-0.36041	-0.017242	-0.16357	0.001221	0.000153	-0.00885
35.232	-0.005493	-0.27084	-0.016174	-0.004425	0.020294	-0.11139	0.079651	-0.00412	0.055389	0.011902	0.049133	0.005646	-0.097504	-0.035095	0.1358	0.019836	0.003357	-0.1651	0.20783	-0.058594	-0.0177	-0.19058	0.30716	-0.25452	-0.068054	-0.01358	-0.54031	-0.011749	-0.16419	0.063629	-0.012207	-0.000763
35.233	-0.001068	-0.28	0.031128	-0.010834	0.009613	-0.057068	0.12787	0.010834	-0.012817	0.037231	0.12207	0.011902	0.54336	0.070496	0.67078	0.011597	0.007019	-0.13367	0.23651	-0.039673	-0.014648	-0.19424	0.24506	-0.27557	-0.059052	-0.014801	-0.4303	-0.010071	-0.014801	0.073853	-0.010223	-0.001221
35.234	-0.009918	-0.26504	0.001373	-0.015564	-0.003815	-0.060272	0.11551	0.006256	-0.019531	0.02121	0.23483	0.007172	0.77454	0.27329	0.83771	-0.003204	0.030212	-0.19226	0.74524	-0.10788	0.003967	-0.21698	0.10056	-0.33905	-0.048981	-0.016479	-0.20752	-0.01297	-0.028992	0.11749	-0.011597	-0.005188
35.235	-0.005798	-0.26459	-0.052032	0.019531	-0.009766	-0.069275	0.10681	-0.001984	-0.003815	-0.057678	0.41504	0.00824	0.11581	0.37766	0.38879	0.01358	0.026855	-0.1976	1.2837	-0.10605	-0.011292	-0.23911	0.023041	-0.39978	-0.037537	-0.014648	0.13092	-0.007782	-0.19089	0.044861	-0.007324	-0.00412
35.236	-0.010071	-0.25375	-0.12009	0.001526	-0.000916	0.029297	0.09903	0.007477	0.01297	-0.06897	0.21896	0.00351	0.053711	0.42252	-0.61768	-0.000305	0.0354	-0.2214	0.90164	-0.039825	-0.034027	-0.23636	0.12985	-0.34027	-0.03418	0.003357	0.28717	-0.006409	0.090179	-0.1178	-0.007935	0.002289
35.237	-0.003052	-0.31403	-0.25452	0.00412	0.00061	0.12375	0.089417	-0.000763	0.020905	-0.020447	-0.005035	0.007324	0.18616	0.33814	-0.98206	-0.011139	0.023804	-0.31555	-0.14389	0.040131	-0.057373	-0.19333	0.10132	-0.18143	-0.00061	0.019531	0.040894	-0.009003	0.20142	-0.19791	-0.00885	0.00946
35.238	-0.007477	-0.31342	-0.24933	0.006104	-0.006561	0.14923	0.077667	0.005646	0.035706	0.026093	-0.29633	0.004578	-0.71411	0.30701	-1.1252	-0.011139	-0.000458	-0.27695	0.16754	0.063477	-0.085297	-0.12726	0.05661	-0.002441	0.018768	0.020447	0.39398	-0.007935	-0.1445	-0.17975	-0.001678	0.011139
35.239	-0.017548	-0.2356	-0.006561	-0.006561	-0.030518	0.12405	0.097351	0.00412	0.003357	0.00412	-0.16129	-0.002136	-0.66727	0.30136	-0.58685	-0.020142	-0.035553	-0.21622	0.15259	0.039825	0.030365	-0.13351	-0.08728	0.02182	0.019073	0.013885	0.40558	-0.008087	-0.29358	-0.13214	-0.000458	0.010376
